<mxfile host="app.diagrams.net" modified="2023-07-24T19:32:50.642Z" agent="Mozilla/5.0 (Windows NT 10.0; Win64; x64) AppleWebKit/537.36 (KHTML, like Gecko) Chrome/115.0.0.0 Safari/537.36" etag="_epjAlkI0u2WmuLEN_Kr" version="21.6.5" type="device" pages="4">
  <diagram name="Exercício 1.0" id="K5zR0lz0dVpLKx5m687c">
    <mxGraphModel dx="612" dy="362" grid="1" gridSize="10" guides="1" tooltips="1" connect="1" arrows="0" fold="1" page="1" pageScale="1" pageWidth="827" pageHeight="1169" math="0" shadow="0">
      <root>
        <mxCell id="0" />
        <mxCell id="1" parent="0" />
        <mxCell id="qCHq7wG8U2nV9zw1mRXq-21" value="" style="group" vertex="1" connectable="0" parent="1">
          <mxGeometry x="40" y="120" width="590" height="80" as="geometry" />
        </mxCell>
        <mxCell id="qCHq7wG8U2nV9zw1mRXq-1" value="" style="rounded=1;whiteSpace=wrap;html=1;" vertex="1" parent="qCHq7wG8U2nV9zw1mRXq-21">
          <mxGeometry width="120" height="60" as="geometry" />
        </mxCell>
        <mxCell id="qCHq7wG8U2nV9zw1mRXq-2" value="" style="rounded=1;whiteSpace=wrap;html=1;" vertex="1" parent="qCHq7wG8U2nV9zw1mRXq-21">
          <mxGeometry x="470" y="10" width="120" height="60" as="geometry" />
        </mxCell>
        <mxCell id="qCHq7wG8U2nV9zw1mRXq-3" value="" style="rhombus;whiteSpace=wrap;html=1;" vertex="1" parent="qCHq7wG8U2nV9zw1mRXq-21">
          <mxGeometry x="250" width="80" height="80" as="geometry" />
        </mxCell>
        <mxCell id="qCHq7wG8U2nV9zw1mRXq-13" style="edgeStyle=orthogonalEdgeStyle;rounded=0;orthogonalLoop=1;jettySize=auto;html=1;exitX=1;exitY=0.75;exitDx=0;exitDy=0;entryX=0.113;entryY=0.574;entryDx=0;entryDy=0;entryPerimeter=0;endArrow=none;endFill=0;" edge="1" parent="qCHq7wG8U2nV9zw1mRXq-21" source="qCHq7wG8U2nV9zw1mRXq-1" target="qCHq7wG8U2nV9zw1mRXq-3">
          <mxGeometry relative="1" as="geometry" />
        </mxCell>
        <mxCell id="qCHq7wG8U2nV9zw1mRXq-20" value="N" style="edgeLabel;html=1;align=center;verticalAlign=middle;resizable=0;points=[];" vertex="1" connectable="0" parent="qCHq7wG8U2nV9zw1mRXq-13">
          <mxGeometry x="-0.1874" relative="1" as="geometry">
            <mxPoint x="-47" y="-5" as="offset" />
          </mxGeometry>
        </mxCell>
        <mxCell id="qCHq7wG8U2nV9zw1mRXq-14" style="edgeStyle=orthogonalEdgeStyle;rounded=0;orthogonalLoop=1;jettySize=auto;html=1;exitX=1;exitY=0.75;exitDx=0;exitDy=0;entryX=0.113;entryY=0.574;entryDx=0;entryDy=0;entryPerimeter=0;endArrow=none;endFill=0;" edge="1" parent="qCHq7wG8U2nV9zw1mRXq-21">
          <mxGeometry relative="1" as="geometry">
            <mxPoint x="330" y="39.260000000000005" as="sourcePoint" />
            <mxPoint x="469" y="40.260000000000005" as="targetPoint" />
          </mxGeometry>
        </mxCell>
        <mxCell id="qCHq7wG8U2nV9zw1mRXq-19" value="1" style="edgeLabel;html=1;align=center;verticalAlign=middle;resizable=0;points=[];" vertex="1" connectable="0" parent="qCHq7wG8U2nV9zw1mRXq-14">
          <mxGeometry x="0.0841" y="4" relative="1" as="geometry">
            <mxPoint x="45" y="6" as="offset" />
          </mxGeometry>
        </mxCell>
        <mxCell id="qCHq7wG8U2nV9zw1mRXq-16" value="Possui" style="text;html=1;strokeColor=none;fillColor=none;align=center;verticalAlign=middle;whiteSpace=wrap;rounded=0;" vertex="1" parent="qCHq7wG8U2nV9zw1mRXq-21">
          <mxGeometry x="260" y="30" width="50" height="25" as="geometry" />
        </mxCell>
        <mxCell id="qCHq7wG8U2nV9zw1mRXq-17" value="Filme" style="text;html=1;strokeColor=none;fillColor=none;align=center;verticalAlign=middle;whiteSpace=wrap;rounded=0;" vertex="1" parent="qCHq7wG8U2nV9zw1mRXq-21">
          <mxGeometry x="10" y="10" width="100" height="33" as="geometry" />
        </mxCell>
        <mxCell id="qCHq7wG8U2nV9zw1mRXq-18" value="Gênero" style="text;html=1;strokeColor=none;fillColor=none;align=center;verticalAlign=middle;whiteSpace=wrap;rounded=0;" vertex="1" parent="qCHq7wG8U2nV9zw1mRXq-21">
          <mxGeometry x="505" y="18" width="50" height="25" as="geometry" />
        </mxCell>
      </root>
    </mxGraphModel>
  </diagram>
  <diagram id="qLtNsRIeh6-A8OjPulFF" name="Exercício 1.1">
    <mxGraphModel dx="291" dy="172" grid="1" gridSize="10" guides="1" tooltips="1" connect="1" arrows="1" fold="1" page="1" pageScale="1" pageWidth="827" pageHeight="1169" math="0" shadow="0">
      <root>
        <mxCell id="0" />
        <mxCell id="1" parent="0" />
        <mxCell id="nK1l1VXxfoafk4Hc_0fc-1" value="E-mail" style="rounded=1;whiteSpace=wrap;html=1;" vertex="1" parent="1">
          <mxGeometry x="240" y="20" width="160" height="60" as="geometry" />
        </mxCell>
        <mxCell id="nK1l1VXxfoafk4Hc_0fc-3" value="Telefone" style="rounded=1;whiteSpace=wrap;html=1;" vertex="1" parent="1">
          <mxGeometry x="240" y="240" width="160" height="60" as="geometry" />
        </mxCell>
        <mxCell id="nK1l1VXxfoafk4Hc_0fc-4" value="Pessoa" style="rounded=1;whiteSpace=wrap;html=1;" vertex="1" parent="1">
          <mxGeometry x="80" y="140" width="160" height="60" as="geometry" />
        </mxCell>
        <mxCell id="nK1l1VXxfoafk4Hc_0fc-5" value="CNH" style="rounded=1;whiteSpace=wrap;html=1;" vertex="1" parent="1">
          <mxGeometry x="400" y="140" width="160" height="60" as="geometry" />
        </mxCell>
        <mxCell id="nK1l1VXxfoafk4Hc_0fc-11" style="edgeStyle=orthogonalEdgeStyle;rounded=0;orthogonalLoop=1;jettySize=auto;html=1;exitX=1;exitY=0.5;exitDx=0;exitDy=0;endArrow=none;endFill=0;" edge="1" parent="1" source="nK1l1VXxfoafk4Hc_0fc-6" target="nK1l1VXxfoafk4Hc_0fc-5">
          <mxGeometry relative="1" as="geometry" />
        </mxCell>
        <mxCell id="qQksTjuNva9nu0NP21pd-4" value="1" style="edgeLabel;html=1;align=center;verticalAlign=middle;resizable=0;points=[];" vertex="1" connectable="0" parent="nK1l1VXxfoafk4Hc_0fc-11">
          <mxGeometry x="-0.3527" relative="1" as="geometry">
            <mxPoint as="offset" />
          </mxGeometry>
        </mxCell>
        <mxCell id="nK1l1VXxfoafk4Hc_0fc-12" style="edgeStyle=orthogonalEdgeStyle;rounded=0;orthogonalLoop=1;jettySize=auto;html=1;exitX=0;exitY=0.5;exitDx=0;exitDy=0;endArrow=none;endFill=0;" edge="1" parent="1" source="nK1l1VXxfoafk4Hc_0fc-6" target="nK1l1VXxfoafk4Hc_0fc-4">
          <mxGeometry relative="1" as="geometry" />
        </mxCell>
        <mxCell id="qQksTjuNva9nu0NP21pd-1" value="1" style="edgeLabel;html=1;align=center;verticalAlign=middle;resizable=0;points=[];" vertex="1" connectable="0" parent="nK1l1VXxfoafk4Hc_0fc-12">
          <mxGeometry x="0.0194" y="-1" relative="1" as="geometry">
            <mxPoint as="offset" />
          </mxGeometry>
        </mxCell>
        <mxCell id="nK1l1VXxfoafk4Hc_0fc-13" style="edgeStyle=orthogonalEdgeStyle;rounded=0;orthogonalLoop=1;jettySize=auto;html=1;exitX=0.5;exitY=0;exitDx=0;exitDy=0;endArrow=none;endFill=0;" edge="1" parent="1" source="nK1l1VXxfoafk4Hc_0fc-6" target="nK1l1VXxfoafk4Hc_0fc-1">
          <mxGeometry relative="1" as="geometry" />
        </mxCell>
        <mxCell id="qQksTjuNva9nu0NP21pd-3" value="N" style="edgeLabel;html=1;align=center;verticalAlign=middle;resizable=0;points=[];" vertex="1" connectable="0" parent="nK1l1VXxfoafk4Hc_0fc-13">
          <mxGeometry x="0.0868" y="2" relative="1" as="geometry">
            <mxPoint as="offset" />
          </mxGeometry>
        </mxCell>
        <mxCell id="nK1l1VXxfoafk4Hc_0fc-14" style="edgeStyle=orthogonalEdgeStyle;rounded=0;orthogonalLoop=1;jettySize=auto;html=1;exitX=0.5;exitY=1;exitDx=0;exitDy=0;endArrow=none;endFill=0;" edge="1" parent="1" source="nK1l1VXxfoafk4Hc_0fc-6" target="nK1l1VXxfoafk4Hc_0fc-3">
          <mxGeometry relative="1" as="geometry" />
        </mxCell>
        <mxCell id="qQksTjuNva9nu0NP21pd-2" value="N" style="edgeLabel;html=1;align=center;verticalAlign=middle;resizable=0;points=[];" vertex="1" connectable="0" parent="nK1l1VXxfoafk4Hc_0fc-14">
          <mxGeometry x="-0.4678" y="2" relative="1" as="geometry">
            <mxPoint as="offset" />
          </mxGeometry>
        </mxCell>
        <mxCell id="nK1l1VXxfoafk4Hc_0fc-6" value="Possui" style="rhombus;whiteSpace=wrap;html=1;" vertex="1" parent="1">
          <mxGeometry x="280" y="130" width="80" height="80" as="geometry" />
        </mxCell>
      </root>
    </mxGraphModel>
  </diagram>
  <diagram id="JG16NXluxrJ2Rt9fGvQl" name="Exercício 1.2">
    <mxGraphModel dx="408" dy="1410" grid="1" gridSize="10" guides="1" tooltips="1" connect="1" arrows="1" fold="1" page="1" pageScale="1" pageWidth="827" pageHeight="1169" math="0" shadow="0">
      <root>
        <mxCell id="0" />
        <mxCell id="1" parent="0" />
        <mxCell id="-jvah5cdW-IG5DGC3yAd-1" value="Empresa" style="rounded=1;whiteSpace=wrap;html=1;" vertex="1" parent="1">
          <mxGeometry x="40" y="-240" width="120" height="80" as="geometry" />
        </mxCell>
        <mxCell id="-jvah5cdW-IG5DGC3yAd-2" value="Veiculo" style="rounded=1;whiteSpace=wrap;html=1;" vertex="1" parent="1">
          <mxGeometry x="330" y="-240" width="120" height="80" as="geometry" />
        </mxCell>
        <mxCell id="-jvah5cdW-IG5DGC3yAd-3" value="Cliente" style="rounded=1;whiteSpace=wrap;html=1;" vertex="1" parent="1">
          <mxGeometry x="620" y="-240" width="130" height="80" as="geometry" />
        </mxCell>
        <mxCell id="-jvah5cdW-IG5DGC3yAd-5" style="edgeStyle=orthogonalEdgeStyle;rounded=0;orthogonalLoop=1;jettySize=auto;html=1;exitX=0;exitY=0.5;exitDx=0;exitDy=0;entryX=1;entryY=0.5;entryDx=0;entryDy=0;endArrow=none;endFill=0;" edge="1" parent="1" source="-jvah5cdW-IG5DGC3yAd-4" target="-jvah5cdW-IG5DGC3yAd-1">
          <mxGeometry relative="1" as="geometry" />
        </mxCell>
        <mxCell id="-jvah5cdW-IG5DGC3yAd-13" value="1" style="edgeLabel;html=1;align=center;verticalAlign=middle;resizable=0;points=[];" vertex="1" connectable="0" parent="-jvah5cdW-IG5DGC3yAd-5">
          <mxGeometry x="-0.0755" y="1" relative="1" as="geometry">
            <mxPoint as="offset" />
          </mxGeometry>
        </mxCell>
        <mxCell id="-jvah5cdW-IG5DGC3yAd-6" style="edgeStyle=orthogonalEdgeStyle;rounded=0;orthogonalLoop=1;jettySize=auto;html=1;exitX=1;exitY=0.5;exitDx=0;exitDy=0;endArrow=none;endFill=0;" edge="1" parent="1" source="-jvah5cdW-IG5DGC3yAd-4" target="-jvah5cdW-IG5DGC3yAd-2">
          <mxGeometry relative="1" as="geometry" />
        </mxCell>
        <mxCell id="-jvah5cdW-IG5DGC3yAd-12" value="N" style="edgeLabel;html=1;align=center;verticalAlign=middle;resizable=0;points=[];" vertex="1" connectable="0" parent="-jvah5cdW-IG5DGC3yAd-6">
          <mxGeometry x="-0.2539" y="2" relative="1" as="geometry">
            <mxPoint as="offset" />
          </mxGeometry>
        </mxCell>
        <mxCell id="-jvah5cdW-IG5DGC3yAd-4" value="Possui" style="rhombus;whiteSpace=wrap;html=1;" vertex="1" parent="1">
          <mxGeometry x="200" y="-240" width="80" height="80" as="geometry" />
        </mxCell>
        <mxCell id="-jvah5cdW-IG5DGC3yAd-8" style="edgeStyle=orthogonalEdgeStyle;rounded=0;orthogonalLoop=1;jettySize=auto;html=1;exitX=0;exitY=0.5;exitDx=0;exitDy=0;entryX=1;entryY=0.5;entryDx=0;entryDy=0;endArrow=none;endFill=0;" edge="1" parent="1" source="-jvah5cdW-IG5DGC3yAd-7" target="-jvah5cdW-IG5DGC3yAd-2">
          <mxGeometry relative="1" as="geometry" />
        </mxCell>
        <mxCell id="-jvah5cdW-IG5DGC3yAd-10" value="N" style="edgeLabel;html=1;align=center;verticalAlign=middle;resizable=0;points=[];" vertex="1" connectable="0" parent="-jvah5cdW-IG5DGC3yAd-8">
          <mxGeometry x="0.102" relative="1" as="geometry">
            <mxPoint as="offset" />
          </mxGeometry>
        </mxCell>
        <mxCell id="-jvah5cdW-IG5DGC3yAd-9" style="edgeStyle=orthogonalEdgeStyle;rounded=0;orthogonalLoop=1;jettySize=auto;html=1;exitX=1;exitY=0.5;exitDx=0;exitDy=0;endArrow=none;endFill=0;" edge="1" parent="1" source="-jvah5cdW-IG5DGC3yAd-7" target="-jvah5cdW-IG5DGC3yAd-3">
          <mxGeometry relative="1" as="geometry" />
        </mxCell>
        <mxCell id="-jvah5cdW-IG5DGC3yAd-11" value="1" style="edgeLabel;html=1;align=center;verticalAlign=middle;resizable=0;points=[];" vertex="1" connectable="0" parent="-jvah5cdW-IG5DGC3yAd-9">
          <mxGeometry x="-0.0633" y="-1" relative="1" as="geometry">
            <mxPoint as="offset" />
          </mxGeometry>
        </mxCell>
        <mxCell id="-jvah5cdW-IG5DGC3yAd-7" value="Aluga" style="rhombus;whiteSpace=wrap;html=1;" vertex="1" parent="1">
          <mxGeometry x="500" y="-240" width="80" height="80" as="geometry" />
        </mxCell>
        <mxCell id="-jvah5cdW-IG5DGC3yAd-19" style="edgeStyle=orthogonalEdgeStyle;rounded=0;orthogonalLoop=1;jettySize=auto;html=1;entryX=-0.007;entryY=0.877;entryDx=0;entryDy=0;entryPerimeter=0;endArrow=none;endFill=0;" edge="1" parent="1" source="-jvah5cdW-IG5DGC3yAd-14" target="-jvah5cdW-IG5DGC3yAd-2">
          <mxGeometry relative="1" as="geometry" />
        </mxCell>
        <mxCell id="-jvah5cdW-IG5DGC3yAd-14" value="Marca" style="ellipse;whiteSpace=wrap;html=1;" vertex="1" parent="1">
          <mxGeometry x="250" y="-90" width="120" height="80" as="geometry" />
        </mxCell>
        <mxCell id="-jvah5cdW-IG5DGC3yAd-17" style="edgeStyle=orthogonalEdgeStyle;rounded=0;orthogonalLoop=1;jettySize=auto;html=1;entryX=1.001;entryY=0.889;entryDx=0;entryDy=0;entryPerimeter=0;endArrow=none;endFill=0;" edge="1" parent="1" source="-jvah5cdW-IG5DGC3yAd-15" target="-jvah5cdW-IG5DGC3yAd-2">
          <mxGeometry relative="1" as="geometry">
            <Array as="points">
              <mxPoint x="510" y="-170" />
              <mxPoint x="470" y="-170" />
              <mxPoint x="470" y="-169" />
            </Array>
          </mxGeometry>
        </mxCell>
        <mxCell id="-jvah5cdW-IG5DGC3yAd-15" value="Modelo" style="ellipse;whiteSpace=wrap;html=1;" vertex="1" parent="1">
          <mxGeometry x="490" y="-90" width="120" height="80" as="geometry" />
        </mxCell>
        <mxCell id="-jvah5cdW-IG5DGC3yAd-18" style="edgeStyle=orthogonalEdgeStyle;rounded=0;orthogonalLoop=1;jettySize=auto;html=1;entryX=0.848;entryY=1.004;entryDx=0;entryDy=0;entryPerimeter=0;endArrow=none;endFill=0;" edge="1" parent="1" source="-jvah5cdW-IG5DGC3yAd-16" target="-jvah5cdW-IG5DGC3yAd-2">
          <mxGeometry relative="1" as="geometry">
            <mxPoint x="430" y="-150" as="targetPoint" />
            <Array as="points">
              <mxPoint x="430" y="-160" />
            </Array>
          </mxGeometry>
        </mxCell>
        <mxCell id="-jvah5cdW-IG5DGC3yAd-16" value="Modelo" style="ellipse;whiteSpace=wrap;html=1;" vertex="1" parent="1">
          <mxGeometry x="370" y="-90" width="120" height="80" as="geometry" />
        </mxCell>
        <mxCell id="-jvah5cdW-IG5DGC3yAd-22" style="edgeStyle=orthogonalEdgeStyle;rounded=0;orthogonalLoop=1;jettySize=auto;html=1;endArrow=none;endFill=0;" edge="1" parent="1" source="-jvah5cdW-IG5DGC3yAd-20">
          <mxGeometry relative="1" as="geometry">
            <mxPoint x="730" y="-250" as="targetPoint" />
          </mxGeometry>
        </mxCell>
        <mxCell id="-jvah5cdW-IG5DGC3yAd-20" value="CPF" style="ellipse;whiteSpace=wrap;html=1;" vertex="1" parent="1">
          <mxGeometry x="670" y="-360" width="120" height="80" as="geometry" />
        </mxCell>
        <mxCell id="-jvah5cdW-IG5DGC3yAd-23" style="edgeStyle=orthogonalEdgeStyle;rounded=0;orthogonalLoop=1;jettySize=auto;html=1;endArrow=none;endFill=0;" edge="1" parent="1" source="-jvah5cdW-IG5DGC3yAd-21" target="-jvah5cdW-IG5DGC3yAd-3">
          <mxGeometry relative="1" as="geometry" />
        </mxCell>
        <mxCell id="-jvah5cdW-IG5DGC3yAd-21" value="Nome" style="ellipse;whiteSpace=wrap;html=1;" vertex="1" parent="1">
          <mxGeometry x="550" y="-360" width="120" height="80" as="geometry" />
        </mxCell>
      </root>
    </mxGraphModel>
  </diagram>
  <diagram id="es3iGyUHcFPMRIjXR8V9" name="Exercício 1.3">
    <mxGraphModel dx="612" dy="362" grid="1" gridSize="10" guides="1" tooltips="1" connect="1" arrows="1" fold="1" page="1" pageScale="1" pageWidth="827" pageHeight="1169" math="0" shadow="0">
      <root>
        <mxCell id="0" />
        <mxCell id="1" parent="0" />
      </root>
    </mxGraphModel>
  </diagram>
</mxfile>
